<mxfile host="app.diagrams.net" modified="2020-04-22T07:30:10.260Z" agent="5.0 (Macintosh; Intel Mac OS X 10_14_0) AppleWebKit/537.36 (KHTML, like Gecko) Chrome/80.0.3987.163 Safari/537.36" etag="LJnvOeBJIY-VlEpzJYeK" version="12.9.10" type="github">
  <diagram id="mFrvOcvwZCpffEapOirO" name="Page-1">
    <mxGraphModel dx="786" dy="443" grid="1" gridSize="10" guides="1" tooltips="1" connect="1" arrows="1" fold="1" page="1" pageScale="1" pageWidth="850" pageHeight="1100" math="0" shadow="0">
      <root>
        <mxCell id="0" />
        <mxCell id="1" parent="0" />
        <mxCell id="nlUTLygNa03EYKMiuQxV-1" value="" style="curved=1;endArrow=classic;html=1;" edge="1" parent="1">
          <mxGeometry width="50" height="50" relative="1" as="geometry">
            <mxPoint x="150" y="450" as="sourcePoint" />
            <mxPoint x="580" y="290" as="targetPoint" />
            <Array as="points">
              <mxPoint x="380" y="490" />
              <mxPoint x="430" y="270" />
            </Array>
          </mxGeometry>
        </mxCell>
        <mxCell id="nlUTLygNa03EYKMiuQxV-2" value="Marker" style="rounded=0;whiteSpace=wrap;html=1;fillColor=#dae8fc;strokeColor=#6c8ebf;" vertex="1" parent="1">
          <mxGeometry x="190" y="250" width="60" height="60" as="geometry" />
        </mxCell>
        <mxCell id="nlUTLygNa03EYKMiuQxV-3" value="Marker" style="rounded=0;whiteSpace=wrap;html=1;fillColor=#dae8fc;strokeColor=#6c8ebf;" vertex="1" parent="1">
          <mxGeometry x="340" y="200" width="60" height="60" as="geometry" />
        </mxCell>
        <mxCell id="nlUTLygNa03EYKMiuQxV-4" value="Marker" style="rounded=0;whiteSpace=wrap;html=1;fillColor=#dae8fc;strokeColor=#6c8ebf;" vertex="1" parent="1">
          <mxGeometry x="460" y="150" width="60" height="60" as="geometry" />
        </mxCell>
        <mxCell id="nlUTLygNa03EYKMiuQxV-10" value="" style="group" vertex="1" connectable="0" parent="1">
          <mxGeometry x="170" y="440" width="20" height="30" as="geometry" />
        </mxCell>
        <mxCell id="nlUTLygNa03EYKMiuQxV-5" value="" style="rounded=0;whiteSpace=wrap;html=1;flipH=0;flipV=0;fillColor=#ffe6cc;strokeColor=#d79b00;" vertex="1" parent="nlUTLygNa03EYKMiuQxV-10">
          <mxGeometry y="10" width="20" height="20" as="geometry" />
        </mxCell>
        <mxCell id="nlUTLygNa03EYKMiuQxV-8" value="" style="shape=trapezoid;perimeter=trapezoidPerimeter;whiteSpace=wrap;html=1;flipV=1;fillColor=#ffe6cc;strokeColor=#d79b00;" vertex="1" parent="nlUTLygNa03EYKMiuQxV-10">
          <mxGeometry x="2" width="16" height="10" as="geometry" />
        </mxCell>
        <mxCell id="nlUTLygNa03EYKMiuQxV-11" value="" style="group" vertex="1" connectable="0" parent="1">
          <mxGeometry x="290" y="440" width="20" height="30" as="geometry" />
        </mxCell>
        <mxCell id="nlUTLygNa03EYKMiuQxV-12" value="" style="rounded=0;whiteSpace=wrap;html=1;flipH=0;flipV=0;fillColor=#ffe6cc;strokeColor=#d79b00;" vertex="1" parent="nlUTLygNa03EYKMiuQxV-11">
          <mxGeometry y="10" width="20" height="20" as="geometry" />
        </mxCell>
        <mxCell id="nlUTLygNa03EYKMiuQxV-13" value="" style="shape=trapezoid;perimeter=trapezoidPerimeter;whiteSpace=wrap;html=1;flipV=1;fillColor=#ffe6cc;strokeColor=#d79b00;" vertex="1" parent="nlUTLygNa03EYKMiuQxV-11">
          <mxGeometry x="2" width="16" height="10" as="geometry" />
        </mxCell>
        <mxCell id="nlUTLygNa03EYKMiuQxV-17" value="" style="group" vertex="1" connectable="0" parent="1">
          <mxGeometry x="470" y="280" width="20" height="30" as="geometry" />
        </mxCell>
        <mxCell id="nlUTLygNa03EYKMiuQxV-18" value="" style="rounded=0;whiteSpace=wrap;html=1;flipH=0;flipV=0;fillColor=#ffe6cc;strokeColor=#d79b00;" vertex="1" parent="nlUTLygNa03EYKMiuQxV-17">
          <mxGeometry y="10" width="20" height="20" as="geometry" />
        </mxCell>
        <mxCell id="nlUTLygNa03EYKMiuQxV-19" value="" style="shape=trapezoid;perimeter=trapezoidPerimeter;whiteSpace=wrap;html=1;flipV=1;fillColor=#ffe6cc;strokeColor=#d79b00;" vertex="1" parent="nlUTLygNa03EYKMiuQxV-17">
          <mxGeometry x="2" width="16" height="10" as="geometry" />
        </mxCell>
        <mxCell id="nlUTLygNa03EYKMiuQxV-20" value="" style="endArrow=classic;html=1;dashed=1;exitX=0.5;exitY=1;exitDx=0;exitDy=0;entryX=0.5;entryY=0;entryDx=0;entryDy=0;" edge="1" parent="1" source="nlUTLygNa03EYKMiuQxV-2" target="nlUTLygNa03EYKMiuQxV-8">
          <mxGeometry width="50" height="50" relative="1" as="geometry">
            <mxPoint x="210" y="400" as="sourcePoint" />
            <mxPoint x="260" y="350" as="targetPoint" />
          </mxGeometry>
        </mxCell>
        <mxCell id="nlUTLygNa03EYKMiuQxV-25" value="R/t" style="text;html=1;align=center;verticalAlign=middle;resizable=0;points=[];" vertex="1" connectable="0" parent="nlUTLygNa03EYKMiuQxV-20">
          <mxGeometry x="0.0508" y="-1" relative="1" as="geometry">
            <mxPoint as="offset" />
          </mxGeometry>
        </mxCell>
        <mxCell id="nlUTLygNa03EYKMiuQxV-21" value="" style="endArrow=classic;html=1;dashed=1;exitX=0.5;exitY=1;exitDx=0;exitDy=0;" edge="1" parent="1" source="nlUTLygNa03EYKMiuQxV-2">
          <mxGeometry width="50" height="50" relative="1" as="geometry">
            <mxPoint x="190" y="330" as="sourcePoint" />
            <mxPoint x="304" y="440" as="targetPoint" />
          </mxGeometry>
        </mxCell>
        <mxCell id="nlUTLygNa03EYKMiuQxV-26" value="R/t" style="text;html=1;align=center;verticalAlign=middle;resizable=0;points=[];" vertex="1" connectable="0" parent="nlUTLygNa03EYKMiuQxV-21">
          <mxGeometry x="-0.0746" y="-3" relative="1" as="geometry">
            <mxPoint x="-1" as="offset" />
          </mxGeometry>
        </mxCell>
        <mxCell id="nlUTLygNa03EYKMiuQxV-22" value="" style="group;rotation=20;" vertex="1" connectable="0" parent="1">
          <mxGeometry x="377.3223304703363" y="387.3223304703363" width="35.355339059327434" height="35.355339059327406" as="geometry" />
        </mxCell>
        <mxCell id="nlUTLygNa03EYKMiuQxV-14" value="" style="group;rotation=-25;" vertex="1" connectable="0" parent="nlUTLygNa03EYKMiuQxV-22">
          <mxGeometry x="8" y="3" width="20" height="30" as="geometry" />
        </mxCell>
        <mxCell id="nlUTLygNa03EYKMiuQxV-15" value="" style="rounded=0;whiteSpace=wrap;html=1;flipH=0;flipV=0;fillColor=#ffe6cc;strokeColor=#d79b00;rotation=-25;" vertex="1" parent="nlUTLygNa03EYKMiuQxV-14">
          <mxGeometry x="2" y="10" width="20" height="20" as="geometry" />
        </mxCell>
        <mxCell id="nlUTLygNa03EYKMiuQxV-16" value="" style="shape=trapezoid;perimeter=trapezoidPerimeter;whiteSpace=wrap;html=1;flipV=1;fillColor=#ffe6cc;strokeColor=#d79b00;rotation=-25;" vertex="1" parent="nlUTLygNa03EYKMiuQxV-14">
          <mxGeometry x="-2" y="1" width="16" height="10" as="geometry" />
        </mxCell>
        <mxCell id="nlUTLygNa03EYKMiuQxV-23" value="" style="endArrow=classic;html=1;dashed=1;exitX=0.5;exitY=1;exitDx=0;exitDy=0;" edge="1" parent="1" source="nlUTLygNa03EYKMiuQxV-3">
          <mxGeometry width="50" height="50" relative="1" as="geometry">
            <mxPoint x="230" y="320" as="sourcePoint" />
            <mxPoint x="300" y="440" as="targetPoint" />
          </mxGeometry>
        </mxCell>
        <mxCell id="nlUTLygNa03EYKMiuQxV-27" value="R/t" style="text;html=1;align=center;verticalAlign=middle;resizable=0;points=[];" vertex="1" connectable="0" parent="nlUTLygNa03EYKMiuQxV-23">
          <mxGeometry x="-0.1158" y="-4" relative="1" as="geometry">
            <mxPoint as="offset" />
          </mxGeometry>
        </mxCell>
        <mxCell id="nlUTLygNa03EYKMiuQxV-24" value="" style="endArrow=classic;html=1;dashed=1;exitX=0.5;exitY=1;exitDx=0;exitDy=0;entryX=0.5;entryY=0;entryDx=0;entryDy=0;" edge="1" parent="1" source="nlUTLygNa03EYKMiuQxV-3" target="nlUTLygNa03EYKMiuQxV-16">
          <mxGeometry width="50" height="50" relative="1" as="geometry">
            <mxPoint x="380" y="270" as="sourcePoint" />
            <mxPoint x="310" y="450" as="targetPoint" />
          </mxGeometry>
        </mxCell>
        <mxCell id="nlUTLygNa03EYKMiuQxV-28" value="R/t" style="text;html=1;align=center;verticalAlign=middle;resizable=0;points=[];" vertex="1" connectable="0" parent="nlUTLygNa03EYKMiuQxV-24">
          <mxGeometry x="0.1213" y="-1" relative="1" as="geometry">
            <mxPoint as="offset" />
          </mxGeometry>
        </mxCell>
        <mxCell id="nlUTLygNa03EYKMiuQxV-29" value="" style="endArrow=classic;html=1;dashed=1;exitX=0.5;exitY=1;exitDx=0;exitDy=0;entryX=0.5;entryY=0;entryDx=0;entryDy=0;" edge="1" parent="1" source="nlUTLygNa03EYKMiuQxV-4" target="nlUTLygNa03EYKMiuQxV-19">
          <mxGeometry width="50" height="50" relative="1" as="geometry">
            <mxPoint x="380" y="270" as="sourcePoint" />
            <mxPoint x="540" y="430" as="targetPoint" />
          </mxGeometry>
        </mxCell>
        <mxCell id="nlUTLygNa03EYKMiuQxV-30" value="R/t" style="text;html=1;align=center;verticalAlign=middle;resizable=0;points=[];" vertex="1" connectable="0" parent="nlUTLygNa03EYKMiuQxV-29">
          <mxGeometry x="0.1213" y="-1" relative="1" as="geometry">
            <mxPoint as="offset" />
          </mxGeometry>
        </mxCell>
      </root>
    </mxGraphModel>
  </diagram>
</mxfile>
